<svg width="284" height="194" viewBox="0 0 284 194" fill="none" xmlns="http://www.w3.org/2000/svg">
<path opacity="0.5" d="M131.723 0.5L130.764 1.37012C116.686 14.1531 104.533 27.1459 94.3018 40.3467L94.3008 40.3457C84.6212 53.379 77.2312 67.8692 72.1279 83.8174C85.6025 86.4451 95.582 92.2172 101.995 101.18L102.593 101.992C108.669 110.425 111.706 120.073 111.706 130.92V146.92C111.706 160.273 107.172 171.495 98.1035 180.554C89.4241 189.223 75.3813 193.5 56.1025 193.5C36.8211 193.5 22.5729 189.222 13.4697 180.562L13.4609 180.554L13.4531 180.545C4.81491 171.485 0.5 160.265 0.5 146.92V133.48C0.5 108.215 7.14647 83.5987 20.4258 59.6377L20.4268 59.6348C34.1248 35.263 50.8269 15.5813 70.5371 0.601562L70.6709 0.5H131.723ZM282.294 0.5L281.336 1.37012C267.258 14.1532 255.105 27.1459 244.873 40.3467C235.194 53.3799 227.803 67.8695 222.7 83.8174C236.179 86.4461 246.161 92.2217 252.574 101.189H252.573C259.044 109.811 262.278 119.727 262.278 130.92V146.92C262.278 160.273 257.744 171.495 248.676 180.554C239.996 189.223 225.954 193.5 206.675 193.5C187.393 193.5 173.145 189.222 164.042 180.562L164.024 180.545C155.386 171.485 151.072 160.265 151.072 146.92V133.48C151.072 108.215 157.718 83.5986 170.997 59.6377L170.999 59.6348C184.697 35.263 201.399 15.5813 221.109 0.601562L221.243 0.5H282.294Z" stroke="#D9EEFF"/>
</svg>
