<svg width="891" height="256" viewBox="0 0 891 256" fill="none" xmlns="http://www.w3.org/2000/svg">
<path d="M413.827 162.891C411.523 166.625 408.191 169.633 404.222 171.563C399.396 173.869 394.08 174.99 388.724 174.831C383.204 174.925 377.724 173.893 372.626 171.8C368.113 169.952 364.188 166.936 361.261 163.069C358.389 159.183 356.702 154.565 356.401 149.761H374.423C374.737 152.991 376.208 156.004 378.569 158.257C379.835 159.411 381.321 160.305 382.939 160.886C384.557 161.467 386.276 161.725 387.996 161.644C389.468 161.742 390.944 161.545 392.337 161.065C393.731 160.585 395.012 159.832 396.104 158.852C397.044 157.908 397.78 156.783 398.265 155.548C398.751 154.313 398.976 152.993 398.927 151.668C399.018 149.301 398.205 146.987 396.649 145.187C395.047 143.426 393.08 142.029 390.882 141.089C388.558 140.06 385.355 138.871 381.272 137.523C376.822 136.119 372.483 134.392 368.291 132.354C364.865 130.599 361.918 128.052 359.701 124.928C357.189 121.168 355.95 116.716 356.162 112.215C356.023 108.961 356.663 105.72 358.03 102.757C359.398 99.794 361.454 97.1924 364.031 95.1645C369.276 91.0063 376.224 88.9272 384.876 88.9272C393.839 88.9272 400.987 91.0669 406.32 95.3464C408.937 97.4305 411.093 100.025 412.653 102.968C414.214 105.911 415.145 109.141 415.39 112.455H397.129C396.739 109.619 395.382 107 393.284 105.03C390.934 102.996 387.872 101.953 384.754 102.126C382.014 101.999 379.321 102.864 377.181 104.561C376.195 105.45 375.423 106.547 374.924 107.771C374.425 108.995 374.211 110.314 374.298 111.631C374.221 113.875 375.016 116.063 376.52 117.745C378.105 119.442 380.027 120.798 382.167 121.726C385.206 123.038 388.314 124.188 391.477 125.171C396.003 126.699 400.436 128.485 404.753 130.52C408.244 132.257 411.238 134.832 413.463 138.009C416.024 141.883 417.285 146.457 417.066 151.08C417.098 155.236 415.978 159.321 413.827 162.891Z" fill="#3366FF"/>
<path d="M465.124 159.624V174.009H456.234C448.786 174.009 443.079 172.225 439.115 168.659C435.151 165.093 433.169 159.15 433.169 150.831V122.314H423.918V108.174H433.169V91.8969H450.107V108.174H465.004V122.314H450.107V151.069C450.107 154.238 450.748 156.456 452.029 157.722C453.311 158.989 455.474 159.623 458.52 159.624H465.124Z" fill="#3366FF"/>
<path d="M517.743 111.264C521.67 113.782 524.664 117.493 526.273 121.839V108.174H543.093V174.008H526.273V160.218C524.655 164.574 521.665 168.302 517.743 170.851C513.454 173.586 508.428 174.974 503.327 174.832C498 174.909 492.757 173.512 488.19 170.799C483.607 167.996 479.954 163.927 477.682 159.094C475.046 153.46 473.752 147.302 473.899 141.095C473.751 134.887 475.046 128.728 477.682 123.092C479.955 118.26 483.608 114.192 488.19 111.389C492.759 108.672 498.004 107.273 503.334 107.348C508.424 107.207 513.441 108.57 517.743 111.264V111.264ZM495.878 127.067C492.672 130.473 491.069 135.146 491.069 141.089C491.069 147.031 492.672 151.687 495.878 155.057C499.293 158.317 503.861 160.129 508.607 160.106C513.353 160.084 517.903 158.229 521.286 154.937C524.737 151.159 526.53 146.181 526.273 141.096C526.273 135.235 524.611 130.581 521.286 127.135C519.662 125.438 517.693 124.101 515.509 123.21C513.326 122.319 510.976 121.895 508.615 121.966C506.246 121.866 503.884 122.269 501.687 123.149C499.489 124.029 497.509 125.365 495.878 127.067V127.067Z" fill="#3366FF"/>
<path d="M580.935 98.9075C578.932 100.652 577.931 103.702 577.932 108.056V108.174H591.387V122.315H577.932V174.009H560.992V122.315H552.462V108.174H560.992V106.63C560.992 98.7847 563.254 92.7446 567.779 88.51C572.304 84.2754 579.012 82.1566 587.903 82.1535C589.423 82.1535 590.585 82.1933 591.387 82.2727V96.7678C586.419 96.453 582.935 97.1662 580.935 98.9075Z" fill="#3366FF"/>
<path d="M661.123 137.939C664.197 141.677 665.836 146.369 665.748 151.187C665.748 158.239 663.365 163.804 658.6 167.881C653.834 171.959 646.926 173.997 637.877 173.995H601.477V90.1147H637.155C645.725 90.1147 652.314 91.9763 656.92 95.6994C661.526 99.4225 663.828 104.651 663.826 111.384C664.026 116.013 662.558 120.563 659.683 124.222C656.91 127.555 653.077 129.859 648.808 130.757C653.649 131.619 658.017 134.167 661.123 137.939V137.939ZM618.416 125.286H633.673C637.917 125.286 641.14 124.355 643.343 122.493C644.468 121.488 645.349 120.245 645.922 118.856C646.494 117.468 646.741 115.969 646.647 114.472C646.738 112.973 646.495 111.471 645.934 110.075C645.373 108.678 644.509 107.421 643.401 106.392C641.238 104.491 637.914 103.54 633.431 103.541H618.415L618.416 125.286ZM644.842 157.426C646.066 156.382 647.029 155.072 647.655 153.597C648.281 152.123 648.552 150.525 648.447 148.93C648.542 147.312 648.261 145.695 647.625 144.202C646.99 142.708 646.017 141.379 644.781 140.316C641.788 138.123 638.106 137.049 634.389 137.285H618.416V160.336H634.514C638.999 160.336 642.442 159.366 644.845 157.426H644.842Z" fill="#3366FF"/>
<path d="M725.877 111.384C731 114.036 735.236 118.101 738.071 123.086C741.134 128.594 742.668 134.805 742.516 141.089C742.673 147.354 741.139 153.547 738.071 159.031C735.214 163.999 730.984 168.059 725.877 170.735C720.453 173.43 714.468 174.834 708.398 174.834C702.328 174.834 696.342 173.43 690.919 170.735C685.811 168.06 681.58 163.999 678.723 159.031C675.654 153.548 674.12 147.355 674.279 141.091C674.125 134.807 675.658 128.595 678.723 123.088C681.558 118.102 685.794 114.037 690.919 111.385C696.353 108.727 702.335 107.344 708.398 107.344C714.461 107.344 720.442 108.727 725.877 111.385V111.384ZM696.384 126.77C693.099 130.059 691.457 134.832 691.458 141.089C691.459 147.346 693.101 152.118 696.384 155.405C697.96 156.968 699.833 158.208 701.894 159.054C703.955 159.9 706.165 160.336 708.397 160.336C710.629 160.336 712.839 159.9 714.9 159.054C716.961 158.208 718.834 156.968 720.41 155.405C723.697 152.116 725.341 147.344 725.341 141.089C725.341 134.834 723.699 130.061 720.414 126.77C718.838 125.207 716.966 123.967 714.905 123.121C712.843 122.275 710.633 121.839 708.402 121.839C706.17 121.839 703.96 122.275 701.899 123.121C699.837 123.967 697.965 125.207 696.389 126.77H696.384Z" fill="#3366FF"/>
<path d="M802.761 111.383C807.886 114.036 812.122 118.101 814.957 123.086C818.02 128.593 819.554 134.805 819.402 141.089C819.56 147.354 818.026 153.547 814.959 159.03C812.1 163.999 807.869 168.058 802.761 170.733C797.338 173.428 791.352 174.832 785.282 174.832C779.212 174.832 773.227 173.428 767.803 170.733C762.696 168.057 758.466 163.997 755.609 159.029C752.54 153.546 751.006 147.353 751.165 141.089C751.011 134.805 752.544 128.593 755.609 123.086C758.444 118.101 762.679 114.036 767.803 111.383C773.238 108.725 779.219 107.342 785.282 107.342C791.345 107.342 797.327 108.725 802.761 111.383V111.383ZM773.272 126.77C769.987 130.059 768.344 134.832 768.345 141.089C768.347 147.346 769.989 152.118 773.272 155.405C774.848 156.968 776.72 158.208 778.782 159.054C780.843 159.9 783.053 160.335 785.285 160.335C787.516 160.335 789.726 159.9 791.788 159.054C793.849 158.208 795.721 156.968 797.297 155.405C800.582 152.119 802.224 147.347 802.224 141.089C802.224 134.831 800.582 130.058 797.297 126.77C795.721 125.207 793.849 123.967 791.788 123.121C789.726 122.275 787.516 121.839 785.285 121.839C783.053 121.839 780.843 122.275 778.782 123.121C776.72 123.967 774.848 125.207 773.272 126.77V126.77Z" fill="#3366FF"/>
<path d="M870.34 174.008L848.349 145.246V174.008H831.415V86.0736H848.349V135.503L870.214 108.174H890.277L862.291 140.968L891 174.008H870.34Z" fill="#3366FF"/>
<path d="M159.216 211.689C154.879 211.689 150.639 212.988 147.033 215.423C143.427 217.858 140.616 221.318 138.957 225.367C137.297 229.416 136.863 233.871 137.71 238.168C138.556 242.466 140.645 246.414 143.712 249.513C146.779 252.611 150.686 254.721 154.94 255.575C159.193 256.43 163.602 255.991 167.609 254.313C171.616 252.636 175.04 249.796 177.449 246.152C179.858 242.508 181.144 238.224 181.143 233.842C181.136 227.968 178.823 222.337 174.712 218.184C170.602 214.032 165.029 211.696 159.216 211.689V211.689Z" fill="#3366FF"/>
<path d="M128.523 229.259C129.611 221.82 133.309 215.023 138.943 210.109C144.578 205.195 151.773 202.492 159.216 202.492C166.659 202.492 173.854 205.195 179.488 210.109C185.123 215.023 188.821 221.82 189.909 229.259C204.409 224.826 217.803 217.314 229.196 207.226L206.102 183.89C202.25 187.097 198.088 189.902 193.678 192.264C184.234 183.629 171.952 178.848 159.216 178.848C146.479 178.848 134.197 183.629 124.753 192.264C120.358 189.91 116.208 187.115 112.367 183.922L89.2732 207.257C100.657 217.33 114.039 224.832 128.523 229.259V229.259Z" fill="#3366FF"/>
<path d="M159.216 44.3118C154.879 44.3118 150.639 43.0123 147.033 40.5778C143.427 38.1432 140.617 34.6829 138.957 30.6344C137.298 26.5859 136.863 22.131 137.709 17.8332C138.556 13.5354 140.644 9.58756 143.711 6.48903C146.777 3.39051 150.685 1.28043 154.938 0.42563C159.192 -0.429168 163.601 0.00970802 167.607 1.68676C171.614 3.36381 175.039 6.20371 177.448 9.84733C179.857 13.491 181.143 17.7746 181.143 22.1567C181.136 28.0306 178.824 33.662 174.713 37.8154C170.602 41.9688 165.029 44.3051 159.216 44.3118V44.3118Z" fill="#3366FF"/>
<path d="M128.523 26.7413C129.611 34.181 133.309 40.9778 138.943 45.8916C144.578 50.8055 151.773 53.509 159.216 53.509C166.659 53.509 173.854 50.8055 179.488 45.8916C185.123 40.9778 188.821 34.181 189.909 26.7413C204.409 31.1738 217.804 38.6858 229.198 48.7742L206.104 72.1098C202.252 68.9031 198.09 66.0978 193.68 63.7368C184.236 72.3717 171.954 77.1531 159.217 77.1531C146.481 77.1531 134.199 72.3717 124.755 63.7368C120.36 66.0903 116.21 68.8851 112.369 72.079L89.2732 48.7442C100.657 38.6705 114.039 31.169 128.523 26.7413V26.7413Z" fill="#3366FF"/>
<path d="M74.855 127.981C74.855 123.599 73.569 119.315 71.1595 115.672C68.7501 112.028 65.3254 109.188 61.3186 107.511C57.3119 105.835 52.9029 105.396 48.6494 106.251C44.3958 107.106 40.4887 109.216 37.4221 112.315C34.3556 115.413 32.2672 119.361 31.4212 123.659C30.5753 127.957 31.0096 132.412 32.6694 136.46C34.3291 140.509 37.1398 143.969 40.7458 146.403C44.3519 148.838 48.5914 150.137 52.9283 150.137C58.7417 150.13 64.315 147.793 68.4256 143.64C72.5363 139.486 74.8485 133.855 74.855 127.981V127.981Z" fill="#3366FF"/>
<path d="M57.4653 96.9689C64.8278 98.0686 71.5538 101.806 76.4165 107.499C81.2791 113.192 83.9544 120.461 83.9544 127.981C83.9544 135.501 81.2791 142.771 76.4165 148.464C71.5538 154.157 64.8278 157.894 57.4653 158.994C61.8524 173.645 69.2873 187.179 79.2719 198.691L102.367 175.355C99.1927 171.463 96.4161 167.256 94.0795 162.799C102.625 153.257 107.357 140.847 107.357 127.978C107.357 115.109 102.625 102.699 94.0795 93.1571C96.4083 88.7156 99.1744 84.5228 102.336 80.6421L79.2415 57.3097C69.2718 68.8127 61.8476 82.3338 57.4653 96.9689V96.9689Z" fill="#3366FF"/>
<path d="M243.144 127.981C243.144 123.599 244.43 119.315 246.839 115.671C249.248 112.028 252.673 109.188 256.68 107.51C260.686 105.833 265.095 105.394 269.349 106.249C273.603 107.104 277.51 109.214 280.577 112.312C283.644 115.411 285.732 119.358 286.579 123.656C287.425 127.954 286.991 132.409 285.332 136.458C283.672 140.507 280.862 143.967 277.256 146.402C273.65 148.837 269.411 150.137 265.074 150.137C259.26 150.131 253.686 147.795 249.574 143.641C245.463 139.487 243.15 133.855 243.144 127.981Z" fill="#3366FF"/>
<path d="M260.534 96.969C253.172 98.0686 246.446 101.806 241.583 107.499C236.72 113.192 234.045 120.461 234.045 127.981C234.045 135.501 236.72 142.771 241.583 148.464C246.446 154.157 253.172 157.894 260.534 158.994C256.147 173.645 248.712 187.179 238.727 198.691L215.632 175.355C218.807 171.463 221.583 167.256 223.92 162.799C215.374 153.257 210.642 140.847 210.642 127.978C210.642 115.109 215.374 102.699 223.92 93.1571C221.591 88.717 218.825 84.5253 215.664 80.6454L238.759 57.3098C248.729 68.8128 256.152 82.3339 260.534 96.969V96.969Z" fill="#3366FF"/>
</svg>
